<svg width="16" height="16" viewBox="0 0 16 16" fill="none" xmlns="http://www.w3.org/2000/svg">
<path d="M11.2637 5.88016C11.2637 8.34761 9.75241 10.3479 7.88812 10.3479C6.02382 10.3479 4.51251 8.34761 4.51251 5.88016C4.51251 3.41271 6.02382 1.41245 7.88812 1.41245C9.75241 1.41245 11.2637 3.41271 11.2637 5.88016Z" fill="#0E8DE5"/>
<path d="M3 5.7801V6C3 6.80977 3.10471 7.56719 3.31414 8.27225C3.52356 8.97033 3.82373 9.57766 4.21466 10.0942C4.5986 10.6108 5.06981 11.0157 5.62827 11.3089C6.18674 11.6021 6.81152 11.7487 7.50262 11.7487C7.91448 11.7487 8.29843 11.7033 8.65445 11.6126C9.01047 11.5288 9.33508 11.4066 9.62827 11.2461C9.81675 11.1414 9.99127 11.0192 10.1518 10.8796C10.3194 10.74 10.4764 10.5864 10.623 10.4188V11.3927C10.623 11.8813 10.5532 12.3141 10.4136 12.6911C10.274 13.0681 10.075 13.3822 9.81675 13.6335C9.55148 13.8918 9.23386 14.0873 8.86387 14.2199C8.49389 14.3525 8.07853 14.4188 7.6178 14.4188C7.35951 14.4188 7.10122 14.3909 6.84293 14.3351C6.58464 14.2862 6.32635 14.2024 6.06806 14.0838C5.80977 13.9651 5.55497 13.8045 5.30366 13.6021C5.05236 13.4066 4.80803 13.1658 4.57068 12.8796L3.56544 14.0419C3.82373 14.4119 4.13089 14.7225 4.48691 14.9738C4.84991 15.2251 5.22688 15.4241 5.6178 15.5707C6.00174 15.7243 6.3822 15.8325 6.75916 15.8953C7.13613 15.9651 7.4712 16 7.7644 16C8.47644 16 9.12565 15.8953 9.71204 15.6859C10.2984 15.4764 10.8045 15.1693 11.2304 14.7644C11.6492 14.3595 11.9738 13.8674 12.2042 13.288C12.4415 12.7086 12.5602 12.0454 12.5602 11.2984V0.209424H10.801L10.7068 1.44503C10.5742 1.27749 10.4311 1.12391 10.2775 0.984293C10.1309 0.844677 9.97382 0.722513 9.80628 0.617801C9.49913 0.415358 9.15358 0.26178 8.76963 0.157068C8.39267 0.052356 7.97731 0 7.52356 0C6.8185 0 6.18674 0.143106 5.62827 0.429319C5.06981 0.715532 4.59511 1.11344 4.20419 1.62304C3.81326 2.13264 3.51309 2.74346 3.30366 3.4555C3.10122 4.16056 3 4.93543 3 5.7801ZM4.93717 6V5.7801C4.93717 5.22862 4.99302 4.70506 5.10471 4.20942C5.22339 3.70681 5.40838 3.26353 5.65969 2.87958C5.90401 2.50262 6.21815 2.20244 6.60209 1.97906C6.99302 1.75567 7.46073 1.64398 8.00524 1.64398C8.32635 1.64398 8.61955 1.68586 8.88482 1.76963C9.15009 1.84642 9.39092 1.95462 9.60733 2.09424C9.82373 2.24084 10.0157 2.41187 10.1832 2.60733C10.3508 2.80279 10.4974 3.0192 10.623 3.25654V8.45026C10.4974 8.69459 10.3508 8.91798 10.1832 9.12042C10.0157 9.32286 9.82722 9.49738 9.6178 9.64398C9.4014 9.79058 9.15707 9.90576 8.88482 9.98953C8.61955 10.0663 8.31937 10.1047 7.98429 10.1047C7.44677 10.1047 6.98604 9.99651 6.60209 9.7801C6.21815 9.55672 5.90401 9.25654 5.65969 8.87958C5.40838 8.50262 5.22339 8.06632 5.10471 7.57068C4.99302 7.07504 4.93717 6.55148 4.93717 6Z" fill="#0E8DE5"/>
<path fill-rule="evenodd" clip-rule="evenodd" d="M8.08665 6.17801V3.99379H8.68234V6.17801H8.08665ZM6.20028 6.17801V3.99379H6.79597V6.17801H6.20028Z" fill="white"/>
<path d="M7.63533 9.00371C7.55698 9.08665 7.42501 9.08665 7.34666 9.00371L6.25976 7.85325C6.14013 7.72663 6.2299 7.51832 6.4041 7.51832H8.5779C8.75209 7.51832 8.84186 7.72663 8.72223 7.85325L7.63533 9.00371Z" fill="white"/>
<path d="M10.4967 3.06725C10.3136 3.66347 9.16656 3.84024 7.93459 3.46206C6.70262 3.08388 5.85228 2.29397 6.03531 1.69775C6.21833 1.10152 7.36541 0.924762 8.59738 1.30294C9.82935 1.68112 10.6797 2.47103 10.4967 3.06725Z" fill="white"/>
<path d="M10.0364 6.44802C10.1522 6.44595 10.2658 6.38925 10.3708 6.28116C10.4758 6.17307 10.5702 6.0157 10.6485 5.81805C10.7269 5.6204 10.7876 5.38633 10.8273 5.1292C10.867 4.87208 10.8849 4.59693 10.8799 4.31948C10.875 4.04203 10.8473 3.7677 10.7984 3.51216C10.7495 3.25662 10.6804 3.02487 10.5951 2.83014C10.5097 2.63542 10.4098 2.48153 10.301 2.37727C10.1921 2.27301 10.0766 2.22041 9.96082 2.22248L9.99862 4.33525L10.0364 6.44802Z" fill="white"/>
<path d="M4.99669 6.24945C4.88095 6.24737 4.76733 6.19068 4.6623 6.08259C4.55728 5.9745 4.46291 5.81713 4.38458 5.61948C4.30625 5.42183 4.2455 5.18776 4.2058 4.93063C4.1661 4.67351 4.14822 4.39836 4.15318 4.12091C4.15814 3.84346 4.18585 3.56913 4.23473 3.31359C4.28361 3.05805 4.35269 2.8263 4.43804 2.63157C4.52338 2.43685 4.62332 2.28296 4.73215 2.1787C4.84097 2.07444 4.95655 2.02184 5.07229 2.02391L5.03449 4.13668L4.99669 6.24945Z" fill="white"/>
</svg>
