<svg width="100" height="70" viewBox="0 0 100 70" fill="none" xmlns="http://www.w3.org/2000/svg">
<path d="M36.8262 25.7257C36.8262 36.5208 30.0912 45.2719 21.7832 45.2719C13.4753 45.2719 6.7403 36.5208 6.7403 25.7257C6.7403 14.9306 13.4753 6.17944 21.7832 6.17944C30.0912 6.17944 36.8262 14.9306 36.8262 25.7257Z" fill="#FF6F00"/>
<path d="M0 25.288V26.25C0 29.7928 0.466636 33.1065 1.39991 36.1911C2.33318 39.2452 3.67087 41.9023 5.41297 44.1623C7.12397 46.4223 9.22383 48.1937 11.7126 49.4764C14.2013 50.7592 16.9855 51.4005 20.0653 51.4005C21.9008 51.4005 23.6118 51.202 25.1983 50.805C26.7849 50.4385 28.2315 49.904 29.538 49.2016C30.378 48.7435 31.1557 48.209 31.8712 47.5982C32.6178 46.9873 33.3178 46.3154 33.9711 45.5825V49.8429C33.9711 51.9808 33.66 53.8743 33.0378 55.5236C32.4156 57.1728 31.529 58.5471 30.378 59.6466C29.1958 60.7766 27.7804 61.6318 26.1316 62.212C24.4828 62.7923 22.6318 63.0825 20.5786 63.0825C19.4276 63.0825 18.2766 62.9603 17.1255 62.716C15.9745 62.5022 14.8235 62.1357 13.6724 61.6165C12.5214 61.0973 11.3859 60.3949 10.266 59.5092C9.14606 58.654 8.05724 57.6003 6.99953 56.3482L2.51983 61.4332C3.67087 63.0519 5.03966 64.411 6.62622 65.5105C8.24389 66.6099 9.92378 67.4804 11.6659 68.1217C13.3769 68.7936 15.0723 69.267 16.7522 69.5419C18.4321 69.8473 19.9253 70 21.2319 70C24.405 70 27.2982 69.5419 29.9113 68.6257C32.5245 67.7094 34.7799 66.3656 36.6776 64.5942C38.5441 62.8229 39.9907 60.6697 41.0173 58.1348C42.075 55.5999 42.6038 52.6985 42.6038 49.4306V0.91623H34.7644L34.3444 6.32199C33.7533 5.58901 33.1156 4.9171 32.4312 4.30628C31.7779 3.69546 31.0779 3.16099 30.3313 2.70288C28.9625 1.81719 27.4226 1.14529 25.7116 0.687173C24.0317 0.229058 22.1807 0 20.1587 0C17.0166 0 14.2013 0.626091 11.7126 1.87827C9.22383 3.13045 7.10842 4.87129 5.36631 7.10079C3.6242 9.33028 2.28651 12.0026 1.35324 15.1178C0.451081 18.2024 0 21.5925 0 25.288ZM8.63276 26.25V25.288C8.63276 22.8752 8.88163 20.5846 9.37937 18.4162C9.90823 16.2173 10.7326 14.2779 11.8525 12.5982C12.9414 10.949 14.3413 9.63569 16.0523 8.65838C17.7944 7.68106 19.8787 7.19241 22.3052 7.19241C23.7362 7.19241 25.0428 7.37565 26.2249 7.74215C27.4071 8.0781 28.4803 8.55148 29.4447 9.1623C30.4091 9.80367 31.2646 10.5519 32.0112 11.4071C32.7578 12.2622 33.4111 13.209 33.9711 14.2474V36.9699C33.4111 38.0388 32.7578 39.0161 32.0112 39.9018C31.2646 40.7875 30.4246 41.551 29.4914 42.1924C28.527 42.8338 27.4382 43.3377 26.2249 43.7042C25.0428 44.0401 23.7051 44.2081 22.2119 44.2081C19.8165 44.2081 17.7633 43.7347 16.0523 42.788C14.3413 41.8106 12.9414 40.4974 11.8525 38.8482C10.7326 37.199 9.90823 35.2901 9.37937 33.1217C8.88163 30.9533 8.63276 28.6627 8.63276 26.25Z" fill="#FF6F00"/>
<path d="M57.3962 25.288V26.25C57.3962 29.7928 57.8628 33.1065 58.7961 36.1911C59.7294 39.2452 61.067 41.9023 62.8091 44.1623C64.5201 46.4223 66.62 48.1937 69.1087 49.4764C71.5975 50.7592 74.3817 51.4005 77.4615 51.4005C79.2969 51.4005 81.0079 51.202 82.5945 50.805C84.1811 50.4385 85.6276 49.904 86.9342 49.2016C87.7741 48.7435 88.5519 48.209 89.2674 47.5982C90.014 46.9873 90.714 46.3154 91.3672 45.5825V49.8429C91.3672 51.9808 91.0562 53.8743 90.434 55.5236C89.8118 57.1728 88.9252 58.5471 87.7741 59.6466C86.592 60.7766 85.1765 61.6318 83.5278 62.212C81.879 62.7923 80.028 63.0825 77.9748 63.0825C76.8238 63.0825 75.6727 62.9603 74.5217 62.716C73.3707 62.5022 72.2196 62.1357 71.0686 61.6165C69.9176 61.0973 68.7821 60.3949 67.6622 59.5092C66.5422 58.654 65.4534 57.6003 64.3957 56.3482L59.916 61.4332C61.067 63.0519 62.4358 64.411 64.0224 65.5105C65.6401 66.6099 67.32 67.4804 69.0621 68.1217C70.7731 68.7936 72.4685 69.267 74.1484 69.5419C75.8283 69.8473 77.3215 70 78.6281 70C81.8012 70 84.6944 69.5419 87.3075 68.6257C89.9207 67.7094 92.1761 66.3656 94.0737 64.5942C95.9403 62.8229 97.3868 60.6697 98.4134 58.1348C99.4711 55.5999 100 52.6985 100 49.4306V0.91623H92.1605L91.7406 6.32199C91.1495 5.58901 90.5117 4.9171 89.8273 4.30628C89.1741 3.69546 88.4741 3.16099 87.7275 2.70288C86.3587 1.81719 84.8188 1.14529 83.1078 0.687173C81.4279 0.229058 79.5769 0 77.5548 0C74.4128 0 71.5975 0.626091 69.1087 1.87827C66.62 3.13045 64.5046 4.87129 62.7625 7.10079C61.0204 9.33028 59.6827 12.0026 58.7494 15.1178C57.8473 18.2024 57.3962 21.5925 57.3962 25.288ZM66.0289 26.25V25.288C66.0289 22.8752 66.2778 20.5846 66.7756 18.4162C67.3044 16.2173 68.1288 14.2779 69.2487 12.5982C70.3375 10.949 71.7374 9.63569 73.4484 8.65838C75.1905 7.68106 77.2748 7.19241 79.7014 7.19241C81.1324 7.19241 82.4389 7.37565 83.6211 7.74215C84.8032 8.0781 85.8765 8.55148 86.8409 9.1623C87.8053 9.80367 88.6608 10.5519 89.4074 11.4071C90.154 12.2622 90.8073 13.209 91.3672 14.2474V36.9699C90.8073 38.0388 90.154 39.0161 89.4074 39.9018C88.6608 40.7875 87.8208 41.551 86.8875 42.1924C85.9232 42.8338 84.8343 43.3377 83.6211 43.7042C82.4389 44.0401 81.1013 44.2081 79.608 44.2081C77.2126 44.2081 75.1594 43.7347 73.4484 42.788C71.7374 41.8106 70.3375 40.4974 69.2487 38.8482C68.1288 37.199 67.3044 35.2901 66.7756 33.1217C66.2778 30.9533 66.0289 28.6627 66.0289 26.25Z" fill="#FF6F00"/>
<path fill-rule="evenodd" clip-rule="evenodd" d="M22.6681 27.0288V17.4728H25.3228V27.0288H22.6681ZM14.2618 27.0288V17.4728H16.9164V27.0288H14.2618Z" fill="white"/>
<path d="M20.6567 39.3913C20.3076 39.7541 19.7195 39.7541 19.3703 39.3913L14.5267 34.358C13.9936 33.804 14.3936 32.8927 15.1699 32.8927H24.8571C25.6334 32.8927 26.0335 33.804 25.5004 34.358L20.6567 39.3913Z" fill="white"/>
<path d="M33.4078 13.4192C32.5922 16.0277 27.4804 16.8011 21.9903 15.1465C16.5002 13.492 12.7107 10.0361 13.5264 7.42766C14.342 4.81918 19.4538 4.04585 24.9439 5.70038C30.434 7.3549 34.2234 10.8108 33.4078 13.4192Z" fill="white"/>
<path d="M31.3568 28.2101C31.8726 28.201 32.379 27.953 32.847 27.4801C33.315 27.0072 33.7356 26.3187 34.0846 25.454C34.4337 24.5892 34.7044 23.5652 34.8813 22.4403C35.0583 21.3153 35.138 20.1116 35.1158 18.8977C35.0937 17.6839 34.9702 16.4837 34.7524 15.3657C34.5346 14.2477 34.2267 13.2338 33.8464 12.3819C33.4661 11.53 33.0207 10.8567 32.5357 10.4006C32.0508 9.9444 31.5357 9.71428 31.0199 9.72334L31.1884 18.9667L31.3568 28.2101Z" fill="white"/>
<path d="M8.89798 27.3414C8.38222 27.3323 7.87587 27.0842 7.40783 26.6113C6.9398 26.1385 6.51925 25.45 6.1702 24.5853C5.82114 23.7205 5.55042 22.6965 5.37348 21.5715C5.19655 20.4466 5.11687 19.2429 5.13899 18.029C5.16111 16.8152 5.2846 15.615 5.50241 14.497C5.72022 13.379 6.02808 12.3651 6.40842 11.5132C6.78876 10.6612 7.23412 9.98799 7.71908 9.53184C8.20405 9.07568 8.71911 8.84557 9.23487 8.85463L9.06642 18.098L8.89798 27.3414Z" fill="white"/>
</svg>
